<svg id="Layer_1" data-name="Layer 1" xmlns="http://www.w3.org/2000/svg" width="343" height="147" viewBox="0 0 343 147"><defs><style>.cls-1{fill:#071c29;}.cls-2{isolation:isolate;}.cls-3{fill:#326ce5;}</style></defs><title>triton-kubernetes</title><path class="cls-1" d="M131.86,50.42V53.2a.69.69,0,0,1-.69.69h-6a.7.7,0,0,0-.7.7v9.73a.69.69,0,0,1-.69.69H121a.69.69,0,0,1-.7-.68h0V53.89a4.17,4.17,0,0,1,4.17-4.17h6.67a.69.69,0,0,1,.72.66Zm5.81-.88h-2.35a.91.91,0,0,0-.91.91h0V63.91a.93.93,0,0,0,.91.92h2.35a.93.93,0,0,0,.91-.92V50.45a.91.91,0,0,0-.91-.91Zm18.08,0h-13.9a.69.69,0,0,0-.7.68h0V53a.7.7,0,0,0,.7.7H146a.69.69,0,0,1,.69.69h0v9.73a.7.7,0,0,0,.7.7h2.78a.69.69,0,0,0,.69-.69h0V54.4a.69.69,0,0,1,.69-.69h4.21a.69.69,0,0,0,.69-.69h0V50.23a.69.69,0,0,0-.69-.69Zm-38.14,0h-13.9a.69.69,0,0,0-.69.69h0V53a.69.69,0,0,0,.68.7h4.15a.69.69,0,0,1,.7.68h0v9.73a.69.69,0,0,0,.68.7H112a.7.7,0,0,0,.7-.7V54.4a.69.69,0,0,1,.69-.69h4.2a.7.7,0,0,0,.7-.7V50.23A.69.69,0,0,0,117.61,49.54Zm58.82.69v13.9a.69.69,0,0,0,.68.7h2.79a.7.7,0,0,0,.7-.7V54.4a.69.69,0,0,1,.69-.69h5.63a.69.69,0,0,1,.69.69h0v9.73a.7.7,0,0,0,.7.7h2.78a.69.69,0,0,0,.69-.69h0V53.71a4.17,4.17,0,0,0-4.17-4.17H177.12a.69.69,0,0,0-.69.69ZM166,53.35a3.93,3.93,0,1,0,3.92,3.94h0A3.93,3.93,0,0,0,166,53.35m0-4.41a8.34,8.34,0,1,1-8.34,8.34h0A8.33,8.33,0,0,1,166,48.94Zm27.53,1.18h.36v-.19H193v.19h.36v1.06h.21Zm1.22,1.06.36-1h0v1h.22V49.93H195l-.35,1-.34-1H194v1.25h.21v-1h0l.35,1Z"/><g class="cls-2"><g class="cls-2"><path class="cls-1" d="M129.07,99.71c0,.29-.17.44-.52.44h-5.47a1.06,1.06,0,0,1-1.06-.58L116.13,88.1c-.07-.15-.15-.22-.25-.22s-.25.12-.44.36l-3.25,3.87a1.14,1.14,0,0,0-.22.77v6.43a.79.79,0,0,1-.24.64,1.18,1.18,0,0,1-.75.2h-4.6a.92.92,0,0,1-.62-.16.75.75,0,0,1-.18-.57V73.74c0-.46.19-.7.58-.7h5.26c.37,0,.55.21.55.63V84.59q0,.36.15.36c.07,0,.17-.07.29-.22l8.84-11.1a1.28,1.28,0,0,1,.47-.46,1.88,1.88,0,0,1,.77-.13h4.35a.88.88,0,0,1,.53.15.43.43,0,0,1,.2.33.5.5,0,0,1-.15.37l-7,8.21a1,1,0,0,0-.18.44,1.2,1.2,0,0,0,.11.44L129,99.27A1.06,1.06,0,0,1,129.07,99.71Z"/></g><g class="cls-2"><path class="cls-1" d="M142.55,94.31V81.63c0-.56.32-.84.95-.84h3.95a.8.8,0,0,1,.6.18.87.87,0,0,1,.16.59l-.07,17.93a.68.68,0,0,1-.16.48.54.54,0,0,1-.42.18h-4.35c-.37,0-.55-.21-.55-.62V97.74c0-.15,0-.23-.11-.26s-.17,0-.29.11a10.14,10.14,0,0,1-3,2.25,7.85,7.85,0,0,1-3.25.68,5.39,5.39,0,0,1-4-1.59,5.83,5.83,0,0,1-1.57-4.3v-13a.77.77,0,0,1,.87-.88h4.06c.46,0,.69.25.69.77V93.83a2.62,2.62,0,0,0,.7,1.92,2.49,2.49,0,0,0,1.86.71A5.54,5.54,0,0,0,142.55,94.31Z"/><path class="cls-1" d="M153,100.15a.86.86,0,0,1-.63-.2.78.78,0,0,1-.21-.6V73.74a.73.73,0,0,1,.17-.51.59.59,0,0,1,.46-.19h4.45c.37,0,.55.22.55.66v8.51c0,.3.09.44.26.44a.82.82,0,0,0,.4-.18,7.27,7.27,0,0,1,5.11-2,6.61,6.61,0,0,1,5.65,2.71,12,12,0,0,1,2,7.23,11.46,11.46,0,0,1-2.2,7.43,7.41,7.41,0,0,1-6.13,2.73,6.63,6.63,0,0,1-3.34-.84,7.7,7.7,0,0,1-2.43-2.12c-.13-.12-.21-.19-.26-.19s-.13.1-.18.3l-.44,1.75a1.16,1.16,0,0,1-.29.57.82.82,0,0,1-.55.16Zm4.79-6.68a3.42,3.42,0,0,0,1.08,2.59,3.6,3.6,0,0,0,2.57,1c2.68,0,4-2.21,4-6.65a9.41,9.41,0,0,0-1-4.87,3.18,3.18,0,0,0-2.9-1.56,4.82,4.82,0,0,0-3.8,1.94Z"/><path class="cls-1" d="M180.74,95.42a4.87,4.87,0,0,0,3.42,1.26,5.3,5.3,0,0,0,2.43-.57,7.44,7.44,0,0,0,2.24-1.88.46.46,0,0,1,.3-.14,1,1,0,0,1,.36.11l2.63,1.09a.39.39,0,0,1,.26.37.56.56,0,0,1-.15.36,10.52,10.52,0,0,1-3.76,3.49,11.15,11.15,0,0,1-5,1,10.35,10.35,0,0,1-5.07-1.25,9,9,0,0,1-3.55-3.45,9.94,9.94,0,0,1-1.28-5.06,10.91,10.91,0,0,1,1.32-5.42,9.37,9.37,0,0,1,3.56-3.64,10.29,10.29,0,0,1,9.85,0,8.52,8.52,0,0,1,3.36,3.52,11.72,11.72,0,0,1,1.2,5.48,1.65,1.65,0,0,1-.09.66c-.06.12-.24.19-.53.22H179.81c-.29,0-.44.19-.44.58A4.29,4.29,0,0,0,180.74,95.42Zm6-7a1,1,0,0,0,.52-.09.57.57,0,0,0,.11-.42,4.54,4.54,0,0,0-.44-1.9,4,4,0,0,0-1.28-1.57,3.37,3.37,0,0,0-2.05-.62,3.85,3.85,0,0,0-3,1.28,4.5,4.5,0,0,0-1.13,3.28Z"/><path class="cls-1" d="M195.85,99.42V81.48c0-.46.19-.69.58-.69h4.28c.38,0,.58.21.58.62v2.16a.31.31,0,0,0,.07.22.26.26,0,0,0,.15.07.5.5,0,0,0,.29-.18,9,9,0,0,1,2.6-2.36,5.51,5.51,0,0,1,2.84-.9c.88,0,1.32.21,1.32.62v4.24a.52.52,0,0,1-.15.4.37.37,0,0,1-.4.08,10.27,10.27,0,0,0-2.56-.3,4.24,4.24,0,0,0-1.84.46,4.49,4.49,0,0,0-1.53,1.21,2.37,2.37,0,0,0-.61,1.51V99.31c0,.56-.31.84-.95.84h-3.91C196.1,100.15,195.85,99.91,195.85,99.42Z"/><path class="cls-1" d="M211.59,100a.75.75,0,0,1-.18-.57V81.48c0-.46.19-.69.58-.69h4.42c.37,0,.55.21.55.62V83.2c0,.2.06.29.18.29a.42.42,0,0,0,.26-.14,12.79,12.79,0,0,1,3-2.18,7,7,0,0,1,3.18-.75,5.39,5.39,0,0,1,5.77,5.78V99.27a.77.77,0,0,1-.87.88h-4.06a.68.68,0,0,1-.54-.16.85.85,0,0,1-.15-.57V87.07a2.59,2.59,0,0,0-.68-1.91,2.65,2.65,0,0,0-2-.68,3.86,3.86,0,0,0-2,.55,8.61,8.61,0,0,0-2,1.71V99.31a.85.85,0,0,1-.21.64,1.13,1.13,0,0,1-.74.2h-3.9A.87.87,0,0,1,211.59,100Z"/></g><g class="cls-2"><path class="cls-1" d="M238.46,95.42a4.85,4.85,0,0,0,3.42,1.26,5.3,5.3,0,0,0,2.43-.57,7.44,7.44,0,0,0,2.24-1.88.46.46,0,0,1,.29-.14.94.94,0,0,1,.37.11l2.63,1.09a.39.39,0,0,1,.26.37A.56.56,0,0,1,250,96a10.52,10.52,0,0,1-3.76,3.49,11.15,11.15,0,0,1-5,1,10.39,10.39,0,0,1-5.08-1.25,9,9,0,0,1-3.54-3.45,9.94,9.94,0,0,1-1.28-5.06,10.91,10.91,0,0,1,1.32-5.42,9.3,9.3,0,0,1,3.56-3.64,10.27,10.27,0,0,1,9.84,0,8.48,8.48,0,0,1,3.37,3.52,11.72,11.72,0,0,1,1.2,5.48,1.65,1.65,0,0,1-.09.66c-.06.12-.24.19-.53.22H237.53c-.29,0-.44.19-.44.58A4.29,4.29,0,0,0,238.46,95.42Zm6-7a.9.9,0,0,0,.51-.09c.08-.06.11-.2.11-.42a4.52,4.52,0,0,0-.43-1.9,4.08,4.08,0,0,0-1.28-1.57,3.37,3.37,0,0,0-2.05-.62,3.84,3.84,0,0,0-3,1.28,4.55,4.55,0,0,0-1.14,3.28Z"/></g><g class="cls-2"><path class="cls-1" d="M261.32,84.66c-.27,0-.41.15-.41.44v8.8a2.33,2.33,0,0,0,.59,1.78,2.74,2.74,0,0,0,1.86.53h2a.53.53,0,0,1,.41.16.7.7,0,0,1,.14.46l0,2.22a.84.84,0,0,1-.8.88,32.06,32.06,0,0,1-4.35.22,6,6,0,0,1-4-1.2,4.35,4.35,0,0,1-1.42-3.51V85.21c0-.37-.16-.55-.48-.55h-2.23c-.46,0-.69-.2-.69-.62v-2.7c0-.37.22-.55.66-.55h2.52c.19,0,.31-.13.36-.4l.52-5.56c0-.41.23-.62.54-.62h4a.56.56,0,0,1,.43.19.78.78,0,0,1,.16.51v5.48a.32.32,0,0,0,.36.36h3.84c.44,0,.66.2.66.59V84c0,.42-.25.62-.73.62Z"/></g><g class="cls-2"><path class="cls-1" d="M274.12,95.42a4.85,4.85,0,0,0,3.42,1.26,5.23,5.23,0,0,0,2.42-.57,7.35,7.35,0,0,0,2.25-1.88.46.46,0,0,1,.29-.14.94.94,0,0,1,.37.11l2.63,1.09a.38.38,0,0,1,.25.37.55.55,0,0,1-.14.36,10.52,10.52,0,0,1-3.76,3.49,11.15,11.15,0,0,1-5,1,10.39,10.39,0,0,1-5.08-1.25,9,9,0,0,1-3.54-3.45,9.94,9.94,0,0,1-1.28-5.06,10.91,10.91,0,0,1,1.32-5.42,9.3,9.3,0,0,1,3.56-3.64,10.27,10.27,0,0,1,9.84,0A8.4,8.4,0,0,1,285,85.17a11.6,11.6,0,0,1,1.21,5.48,1.65,1.65,0,0,1-.09.66c-.06.12-.24.19-.53.22H273.19c-.29,0-.44.19-.44.58A4.29,4.29,0,0,0,274.12,95.42Zm6-7a.9.9,0,0,0,.51-.09c.08-.06.11-.2.11-.42a4.52,4.52,0,0,0-.43-1.9A4.08,4.08,0,0,0,279,84.48a3.39,3.39,0,0,0-2.05-.62,3.84,3.84,0,0,0-3,1.28,4.55,4.55,0,0,0-1.14,3.28Z"/><path class="cls-1" d="M296.9,83.86a4.52,4.52,0,0,0-2.3.53,1.61,1.61,0,0,0-.92,1.44,1.29,1.29,0,0,0,.42.93,3.51,3.51,0,0,0,1.63.71l4.2,1a8.09,8.09,0,0,1,4.24,2.21,5.19,5.19,0,0,1,1.35,3.56,5.28,5.28,0,0,1-2.41,4.56,10.78,10.78,0,0,1-6.32,1.69,12.44,12.44,0,0,1-5.45-1.12,7,7,0,0,1-3.25-2.9.85.85,0,0,1-.18-.48.37.37,0,0,1,.26-.36l2.48-1.28a1.15,1.15,0,0,1,.51-.15.53.53,0,0,1,.4.19,6.34,6.34,0,0,0,2,1.8,6,6,0,0,0,3.05.68,6.56,6.56,0,0,0,2.79-.51,1.62,1.62,0,0,0,1.08-1.5,1.35,1.35,0,0,0-.55-1.1A5.05,5.05,0,0,0,298,93l-3.76-.81q-5.56-1.2-5.56-5.51a5.5,5.5,0,0,1,1-3.25,6.52,6.52,0,0,1,2.87-2.23,10.9,10.9,0,0,1,4.38-.81,10.78,10.78,0,0,1,4.73,1,6.82,6.82,0,0,1,3,2.48,1,1,0,0,1,.22.52.43.43,0,0,1-.26.36L302,86.05a.5.5,0,0,1-.29.07.65.65,0,0,1-.55-.29A5.05,5.05,0,0,0,296.9,83.86Z"/></g><g class="cls-2"><path class="cls-1" d="M309.77,84a5.42,5.42,0,0,1-2-2,5.27,5.27,0,0,1-.73-2.73,5.33,5.33,0,0,1,.73-2.74,5.4,5.4,0,0,1,2-2,5.47,5.47,0,0,1,5.46,0A5.44,5.44,0,0,1,318,79.31a5.37,5.37,0,0,1-.73,2.73,5.5,5.5,0,0,1-2,2,5.27,5.27,0,0,1-2.73.73A5.33,5.33,0,0,1,309.77,84Zm5.6-1.76a4.56,4.56,0,0,0,0-5.89,4.2,4.2,0,0,0-5.71,0,4.08,4.08,0,0,0-1.08,3,4,4,0,0,0,1.08,2.94,4.28,4.28,0,0,0,5.73,0Zm-.56-.28a.12.12,0,0,1-.11,0h-1.16a.17.17,0,0,1-.18-.13l-.73-2.1a.26.26,0,0,0-.21-.09h-.66a.08.08,0,0,0-.09.09v2.07c0,.11-.07.16-.21.16h-1c-.11,0-.16,0-.16-.13V76.77c0-.09,0-.13.11-.13h2.42a2.66,2.66,0,0,1,1.53.37,1.24,1.24,0,0,1,.55,1.09,1.37,1.37,0,0,1-.29.88,1.73,1.73,0,0,1-.71.51.11.11,0,0,0,0,.11l.94,2.24A.19.19,0,0,1,314.81,82Zm-1.52-3.38a.48.48,0,0,0,.2-.42.5.5,0,0,0-.2-.42,1,1,0,0,0-.57-.15h-1a.06.06,0,0,0-.06,0,.19.19,0,0,0,0,.08v.89c0,.09,0,.14.09.14h1A.92.92,0,0,0,313.29,78.59Z"/></g></g><path class="cls-3" d="M92.09,78.06c-.14,0-.21,0-.21-.07s-.29-.07-.43-.07a9.44,9.44,0,0,0-1.29-.15,2,2,0,0,1-.65-.07h-.07a24,24,0,0,1-3.58-.57,1.41,1.41,0,0,1-.72-.72c0-.07-.07-.07-.07-.14L84.21,76a26,26,0,0,0-.43-9.39,27.68,27.68,0,0,0-3.73-8.75l.64-.57v-.15a1.47,1.47,0,0,1,.36-1,17.65,17.65,0,0,1,3-2.08c.2-.11.39-.23.58-.36.43-.21.71-.43,1.14-.65a3.44,3.44,0,0,0,.36-.28c.07-.07.15-.07.15-.15a2.2,2.2,0,0,0,.43-3,2,2,0,0,0-1.51-.72,2.64,2.64,0,0,0-1.43.51l-.15.14c-.14.07-.21.22-.36.29a12.62,12.62,0,0,0-.86.93c-.14.14-.28.36-.43.43a15.71,15.71,0,0,1-2.65,2.37,1.16,1.16,0,0,1-.57.21.91.91,0,0,1-.43-.07h-.15l-.79.5a29.41,29.41,0,0,0-2.72-2.51,26.06,26.06,0,0,0-13.91-5.52l-.07-.86-.15-.14a1.46,1.46,0,0,1-.5-.86,20.55,20.55,0,0,1,.22-3.59v-.07A2.44,2.44,0,0,1,60.4,40c.07-.43.14-.79.22-1.29v-.64A2,2,0,1,0,56.53,38v.57a4.05,4.05,0,0,0,.21,1.29c.07.22.07.43.15.65v.07a16.49,16.49,0,0,1,.21,3.58,1.92,1.92,0,0,1-.5.86l-.14.15-.08.86c-1.22.14-2.36.28-3.58.5a27.91,27.91,0,0,0-13.41,7.74l-.65-.43H38.6c-.14,0-.29.07-.43.07a.81.81,0,0,1-.57-.21,15.8,15.8,0,0,1-2.66-2.44c-.14-.14-.28-.36-.43-.43a8.39,8.39,0,0,0-.86-.93l-.35-.29c-.08-.07-.15-.07-.15-.14a2.19,2.19,0,0,0-1.43-.5,1.89,1.89,0,0,0-1.51.71,2.34,2.34,0,0,0,.43,3c.07,0,.07.07.14.07s.22.21.36.28a8.69,8.69,0,0,0,1.15.65,1.42,1.42,0,0,1,.57.36,18.24,18.24,0,0,1,3,2.08,1.18,1.18,0,0,1,.36,1v.15l.64.57c-.14.21-.29.36-.36.5a26.14,26.14,0,0,0-3.73,17.57l-.86.28c0,.08-.07.08-.07.15a1.67,1.67,0,0,1-.72.72,16.7,16.7,0,0,1-3.58.57h-.07a2,2,0,0,0-.65.07,7.09,7.09,0,0,0-1.29.15c-.14,0-.29.07-.43.07a.29.29,0,0,0-.22.07,2.13,2.13,0,0,0-1.72,2.44,2.07,2.07,0,0,0,2.16,1.5,1.07,1.07,0,0,0,.5-.07c.07,0,.14,0,.14-.07s.29-.07.43-.07c.43-.15.79-.29,1.22-.43A6.45,6.45,0,0,0,28.2,81h.08a19.38,19.38,0,0,1,3.44-1h.14a1.37,1.37,0,0,1,.86.35c.07,0,.07.08.14.08l.94-.15a26.17,26.17,0,0,0,8.74,12.55,25.33,25.33,0,0,0,2.87,1.94l-.43.86c0,.07.07.07.07.14a1.29,1.29,0,0,1,.15,1.08A24.05,24.05,0,0,1,43.48,100v.07c-.22,0-.36.15-.5.36a12.66,12.66,0,0,0-.72,1.08,1.65,1.65,0,0,0-.22.36.2.2,0,0,1,0,.13,2.14,2.14,0,0,0,.86,2.87,1.66,1.66,0,0,0,.79.21,2.37,2.37,0,0,0,2-1.29.27.27,0,0,1,.07-.14,1.34,1.34,0,0,1,.22-.36,8.79,8.79,0,0,0,.42-1.22c.08-.21.15-.43.22-.57a14.62,14.62,0,0,1,1.36-3.3c.29-.43.58-.43.86-.57.08,0,.08,0,.15-.08l.43-.86a25.58,25.58,0,0,0,9.32,1.72,26.46,26.46,0,0,0,5.81-.64,27.11,27.11,0,0,0,3.44-1l.43.71c.07,0,.07,0,.14.07a1.36,1.36,0,0,1,.86.58,23.18,23.18,0,0,1,1.37,3.3v.07q.09.28.21.57a8.83,8.83,0,0,0,.43,1.22c.07.14.14.22.22.36a.27.27,0,0,0,.07.14,2.37,2.37,0,0,0,2,1.29,1.66,1.66,0,0,0,.78-.21,2.16,2.16,0,0,0,1-1.22,2.25,2.25,0,0,0-.15-1.65c0-.07-.07-.07-.07-.14a1.31,1.31,0,0,0-.21-.36,5.64,5.64,0,0,0-.72-1.08,3.43,3.43,0,0,0-.43-.5v-.07a17.26,17.26,0,0,1-1.72-3.16,1.86,1.86,0,0,1,.07-1.07c0-.07.07-.07.07-.15L72,94.7a26.69,26.69,0,0,0,8.82-8.61,24.1,24.1,0,0,0,2.79-6l.79.14c.07,0,.07-.07.14-.07.29-.14.43-.36.86-.36h.15a14.28,14.28,0,0,1,3.44,1h0a6.27,6.27,0,0,1,.58.29,3.25,3.25,0,0,0,1.21.43c.15,0,.29.07.43.07a.27.27,0,0,1,.22.08,1.41,1.41,0,0,0,.5.07,2.29,2.29,0,0,0,2.15-1.51A2.82,2.82,0,0,0,92.09,78.06ZM73,57.55l-8.8,6.17a1.7,1.7,0,0,1-2.29-.43,1.34,1.34,0,0,1-.36-.72L61,51.74A20.84,20.84,0,0,1,73,57.55ZM56.67,69.17H59.9l2,2.51-.65,3.15-2.94,1.36-2.94-1.36-.72-3.15Zm-3-17.07c.72-.14,1.36-.29,2.15-.43l-.65,10.69a1.79,1.79,0,0,1-1.79,1.72,1.39,1.39,0,0,1-.79-.22L43.7,57.55a20.45,20.45,0,0,1,10-5.45ZM40.54,61.57l7.88,7A1.79,1.79,0,0,1,48.64,71a1.17,1.17,0,0,1-.79.5l-10.33,3A21,21,0,0,1,40.54,61.57ZM51.15,80.21,47.06,90a20.6,20.6,0,0,1-8.32-10.47l10.62-1.8a1.77,1.77,0,0,1,1.86,1.36A1.87,1.87,0,0,1,51.15,80.21Zm11.9,12.62a19.74,19.74,0,0,1-4.66.5,23.67,23.67,0,0,1-6.74-1.07l5.24-9.54A1.75,1.75,0,0,1,59,82.29a2.59,2.59,0,0,1,.79.72l5.09,9.25A14.89,14.89,0,0,1,63.05,92.83Zm13-9.25A21.07,21.07,0,0,1,69.65,90L65.42,80a1.81,1.81,0,0,1,.93-2.08,1.9,1.9,0,0,1,.93-.22L78,79.49a14.26,14.26,0,0,1-2,4.09Zm3.09-9-10.21-2.9a1.9,1.9,0,0,1-1.29-2.15,1.48,1.48,0,0,1,.43-.72l8-7.24a22.58,22.58,0,0,1,2.59,6.31,21.81,21.81,0,0,1,.46,6.74Z"/></svg>